<?xml version="1.0" encoding="utf-8"?>
<svg version="1.1" id="Lager_1" xmlns="http://www.w3.org/2000/svg" xmlns:xlink="http://www.w3.org/1999/xlink" x="0px" y="0px"
	 viewBox="0 0 1000 1000" style="enable-background:new 0 0 1000 1000;" xml:space="preserve">
<style type="text/css">
	.st0{fill:url(#SVGID_1_);}
</style>
<linearGradient id="SVGID_1_" gradientUnits="userSpaceOnUse" x1="187.3121" y1="838.6881" x2="813.6881" y2="212.3121">
	<stop  offset="0" style="stop-color:#06A88E"/>
	<stop  offset="1" style="stop-color:#67CEBB"/>
</linearGradient>
<path class="st0" d="M708.46,721.49 M603.31,722 M527.61,505 M501.5,562c-29.55,0-53.5,23.95-53.5,53.5s23.95,53.5,53.5,53.5
	s53.5-23.95,53.5-53.5S531.05,562,501.5,562z M342.5,562c-29.55,0-53.5,23.95-53.5,53.5s23.95,53.5,53.5,53.5s53.5-23.95,53.5-53.5
	S372.05,562,342.5,562z M666.5,562c-29.55,0-53.5,23.95-53.5,53.5s23.95,53.5,53.5,53.5s53.5-23.95,53.5-53.5S696.05,562,666.5,562z
	 M714.11,177H675v48h39.11c47.99,0,86.89,38.9,86.89,86.89v427.22c0,47.99-38.9,86.89-86.89,86.89H286.89
	C238.9,826,200,787.1,200,739.11V311.89c0-47.99,38.9-86.89,86.89-86.89H327v-48h-40.11C212.39,177,152,237.39,152,311.89v427.22
	C152,813.61,212.39,874,286.89,874h427.22C788.61,874,849,813.61,849,739.11V311.89C849,237.39,788.61,177,714.11,177z M855,739.11
	V311.89C855,234.2,791.8,171,714.11,171H669v60h45.11c44.6,0,80.89,36.29,80.89,80.89v427.22c0,44.6-36.29,80.89-80.89,80.89H286.89
	c-44.6,0-80.89-36.29-80.89-80.89V311.89c0-44.6,36.29-80.89,80.89-80.89H333v-60h-46.11C209.2,171,146,234.2,146,311.89v427.22
	C146,816.8,209.2,880,286.89,880h427.22C791.8,880,855,816.8,855,739.11z M321,183v36h-34.11c-51.22,0-92.89,41.67-92.89,92.89
	v427.22c0,51.22,41.67,92.89,92.89,92.89h427.22c51.22,0,92.89-41.67,92.89-92.89V311.89c0-51.22-41.67-92.89-92.89-92.89H681v-36
	h33.11C785.18,183,843,240.82,843,311.89v427.22C843,810.18,785.18,868,714.11,868H286.89C215.82,868,158,810.18,158,739.11V311.89
	C158,240.82,215.82,183,286.89,183H321z M566,177H436c0,0,0,0,0,0v48h130V177z M572,171H430v60h142V171z M442,183h118v36H442V183z
	 M619.73,249.13v-96.27c0-14.84-12.03-26.87-26.87-26.87h0c-14.84,0-26.87,12.03-26.87,26.87v96.27c0,14.84,12.03,26.87,26.87,26.87
	h0C607.7,276,619.73,263.97,619.73,249.13z M380.73,249.13v-96.27c0-14.84-12.03-26.87-26.87-26.87h0
	c-14.84,0-26.87,12.03-26.87,26.87v96.27c0,14.84,12.03,26.87,26.87,26.87h0C368.7,276,380.73,263.97,380.73,249.13z M849,406.11
	L849,406.11c0-13.25-14.69-24-32.8-24H184.8c-18.11,0-32.8,10.75-32.8,24v0c0,13.25,14.69,24,32.8,24h631.4
	C834.31,430.11,849,419.37,849,406.11z M855,406.11c0-16.54-17.41-30-38.8-30H184.8c-21.39,0-38.8,13.46-38.8,30s17.41,30,38.8,30
	h631.4C837.59,436.11,855,422.65,855,406.11z M816.2,388.11c14.53,0,26.8,8.24,26.8,18s-12.27,18-26.8,18H184.8
	c-14.53,0-26.8-8.24-26.8-18s12.27-18,26.8-18H816.2z"/>
</svg>
