<?xml version="1.0" standalone="no"?>
<svg
  viewBox="0 0 600 600"
  xmlns="http://www.w3.org/2000/svg"
>
  <g transform="translate(300,300)">
    <path d="M86.1,-143.5C119.6,-112.5,160.3,-102.1,178,-77.2C195.7,-52.3,190.4,-12.9,187.4,28.9C184.4,70.6,183.6,114.5,166.6,157.3C149.6,200,116.4,241.5,84.1,221.2C51.8,200.9,20.6,118.7,-22.1,96.5C-64.8,74.3,-118.9,112.1,-160.7,112.3C-202.5,112.5,-231.9,75,-248.1,29.5C-264.3,-16.1,-267.2,-69.7,-230.8,-87.1C-194.3,-104.4,-118.5,-85.4,-73.5,-111.2C-28.5,-137,-14.2,-207.5,6,-216.9C26.3,-226.3,52.6,-174.5,86.1,-143.5Z" fill="#60d2d2" />
  </g>
</svg>
  