<svg version="1.1" xmlns="http://www.w3.org/2000/svg" xmlns:xlink="http://www.w3.org/1999/xlink" preserveAspectRatio="xMidYMid meet" viewBox="0 0 4000 1000" width="4000" height="1000"><defs><path d="M0 0L4011.31 0L4009.76 312.5L3975.64 312.5C3941.73 311.63 3908.19 305.28 3875 293.45C3825.22 275.69 3548.51 136.51 3375.99 238.89C3086.83 410.47 3024.52 213.89 2835.25 172.22C2645.98 130.56 2550.98 363.19 2218.91 361.11C1886.84 359.03 1884.88 17.59 1619.83 133.33C1354.79 249.07 1287.66 65.74 1085.57 187.5C883.49 309.26 807.24 189.12 619.83 250C494.9 290.59 375.39 311.42 261.31 312.5L0 312.5L0 0Z" id="b2hEiAL6yX"/></defs><g><g><g><use xlink:href="#b2hEiAL6yX" opacity="1" fill="#2cbaba" fill-opacity="1"/></g></g></g></svg>