<svg xmlns="http://www.w3.org/2000/svg" viewBox="0 0 1440 320">
  <path fill="#60d2d2" fill-opacity="1" d="M0,96L21.8,117.3C43.6,139,87,181,131,213.3C174.5,245,218,267,262,261.3C305.5,256,349,224,393,224C436.4,224,480,256,524,234.7C567.3,213,611,139,655,96C698.2,53,742,43,785,42.7C829.1,43,873,53,916,64C960,75,1004,85,1047,117.3C1090.9,149,1135,203,1178,213.3C1221.8,224,1265,192,1309,160C1352.7,128,1396,96,1418,80L1440,64L1440,0L1418.2,0C1396.4,0,1353,0,1309,0C1265.5,0,1222,0,1178,0C1134.5,0,1091,0,1047,0C1003.6,0,960,0,916,0C872.7,0,829,0,785,0C741.8,0,698,0,655,0C610.9,0,567,0,524,0C480,0,436,0,393,0C349.1,0,305,0,262,0C218.2,0,175,0,131,0C87.3,0,44,0,22,0L0,0Z"></path>
</svg>